HIERARCHY
ROOT Hips
{
 OFFSET 0.000000 0.000000 0.000000
 CHANNELS 6 Xposition Yposition Zposition Yrotation Xrotation Zrotation
 JOINT Chest
 {
  OFFSET 0.000000 10.080317 -0.001081
  CHANNELS 3 Yrotation Xrotation Zrotation
  JOINT Chest2
  {
   OFFSET 0.000000 11.096852 0.001963
   CHANNELS 3 Yrotation Xrotation Zrotation
   JOINT Chest3
   {
    OFFSET 0.000000 10.026525 0.000000
    CHANNELS 3 Yrotation Xrotation Zrotation
    JOINT Chest4
    {
     OFFSET 0.000000 10.026525 0.000000
     CHANNELS 3 Yrotation Xrotation Zrotation
     JOINT Neck
     {
      OFFSET 0.000000 14.108171 0.000000
      CHANNELS 3 Yrotation Xrotation Zrotation
      JOINT Head
      {
       OFFSET 0.000000 9.333493 0.004668
       CHANNELS 3 Yrotation Xrotation Zrotation
       End Site
       {
        OFFSET 0.000000 17.851786 0.002438
       }
      }
     }
     JOINT RightCollar
     {
      OFFSET -3.071622 7.873185 0.000000
      CHANNELS 3 Yrotation Xrotation Zrotation
      JOINT RightShoulder
      {
       OFFSET -14.378659 0.000000 0.000000
       CHANNELS 3 Yrotation Xrotation Zrotation
       JOINT RightElbow
       {
        OFFSET -30.778728 0.000000 0.000000
        CHANNELS 3 Yrotation Xrotation Zrotation
        JOINT RightWrist
        {
         OFFSET -25.164217 0.000000 0.000000
         CHANNELS 3 Yrotation Xrotation Zrotation
         End Site
         {
          OFFSET -18.796788 0.000000 0.000000
         }
        }
       }
      }
     }
     JOINT LeftCollar
     {
      OFFSET 3.071622 7.873185 0.000000
      CHANNELS 3 Yrotation Xrotation Zrotation
      JOINT LeftShoulder
      {
       OFFSET 14.378659 0.000000 0.000000
       CHANNELS 3 Yrotation Xrotation Zrotation
       JOINT LeftElbow
       {
        OFFSET 30.778728 0.000000 0.000000
        CHANNELS 3 Yrotation Xrotation Zrotation
        JOINT LeftWrist
        {
         OFFSET 25.164217 0.000000 0.000000
         CHANNELS 3 Yrotation Xrotation Zrotation
         End Site
         {
          OFFSET 18.796788 0.000000 0.000000
         }
        }
       }
      }
     }
    }
   }
  }
 }
 JOINT RightHip
 {
  OFFSET -8.194923 0.005295 0.000540
  CHANNELS 3 Yrotation Xrotation Zrotation
  JOINT RightKnee
  {
   OFFSET 0.000000 -42.473320 -0.000511
   CHANNELS 3 Yrotation Xrotation Zrotation
   JOINT RightAnkle
   {
    OFFSET 0.000000 -41.474259 -0.000865
    CHANNELS 3 Yrotation Xrotation Zrotation
    JOINT RightToe
    {
     OFFSET 0.000000 -7.354994 16.712725
     CHANNELS 3 Yrotation Xrotation Zrotation
     End Site
     {
      OFFSET 0.000000 -1.553903 6.764158
     }
    }
   }
  }
 }
 JOINT LeftHip
 {
  OFFSET 8.194923 0.005295 0.000540
  CHANNELS 3 Yrotation Xrotation Zrotation
  JOINT LeftKnee
  {
   OFFSET 0.000000 -42.473320 -0.000511
   CHANNELS 3 Yrotation Xrotation Zrotation
   JOINT LeftAnkle
   {
    OFFSET 0.000000 -41.474259 -0.000865
    CHANNELS 3 Yrotation Xrotation Zrotation
    JOINT LeftToe
    {
     OFFSET 0.000000 -7.354994 16.712725
     CHANNELS 3 Yrotation Xrotation Zrotation
     End Site
     {
      OFFSET 0.000000 -1.553903 6.764158
     }
    }
   }
  }
 }
}
MOTION
Frames: 17
Frame Time: 0.016667
0.000000 91.111157 0.000000 0.000000 -5.826342 0.000000 0.000000 11.116423 0.000000 0.000000 -5.290081 0.000000 0.000000 0.000000 0.000000 0.000000 0.000000 0.000000 0.000000 12.665069 0.000000 0.000000 0.575450 0.000000 0.000000 0.000000 0.000000 0.000000 0.000000 0.000000 2.337306 0.000000 0.000000 -2.337306 0.000000 0.000000 0.000000 0.000000 0.000000 0.000000 0.000000 0.000000 -2.337306 0.000000 0.000000 2.337306 0.000000 0.000000 0.000000 8.578828 0.000000 0.000000 1.905768 0.000000 0.000000 -4.658254 0.000000 0.000000 0.000000 0.000000 0.000000 8.578828 0.000000 0.000000 1.905768 0.000000 0.000000 -4.658254 0.000000 0.000000 0.000000 0.000000
-377.886172 92.844306 -85.760386 172.682539 -6.007021 -0.986358 3.615023 3.145719 -0.010006 1.629472 1.412831 -0.072466 1.629472 1.412831 -0.072466 1.222210 1.059439 -0.058114 1.117468 18.516959 1.642343 1.514503 -1.802204 2.650124 -5.542053 -0.626055 12.422114 2.054308 -4.015928 66.818275 19.240403 18.358948 12.452862 -4.298463 4.544397 -12.598502 -6.376371 0.639297 -6.747525 -9.799736 -13.212536 -69.943252 -14.920002 28.810836 -19.541525 5.876956 8.390666 15.607646 -10.738912 5.336201 -2.533164 -5.257671 6.284090 -1.293910 -2.652034 -3.866196 3.810543 -0.050020 0.040078 -0.026915 3.531044 8.743185 1.654588 1.842989 6.198855 -2.754307 1.472928 -8.546006 3.560816 0.075188 -0.132096 0.070938
-377.925551 92.844070 -85.773251 172.670854 -5.963343 -0.998361 3.619026 3.153283 -0.006099 1.631422 1.417036 -0.072551 1.631422 1.417036 -0.072551 1.223673 1.062593 -0.058194 1.079461 18.502968 1.665089 1.437085 -1.827649 2.704339 -5.533294 -0.644974 12.387869 2.064333 -3.979038 66.800944 19.156135 18.363017 12.397038 -4.301348 4.562178 -12.602008 -6.376086 0.621529 -6.745427 -9.823846 -13.206652 -69.910520 -14.891635 28.787304 -19.513334 5.893493 8.392755 15.604821 -10.796161 5.293702 -2.554397 -5.226938 6.275817 -1.278936 -2.632141 -3.845415 3.819845 -0.047493 0.040254 -0.018915 3.531215 8.715329 1.647773 1.832794 6.178410 -2.772217 1.479408 -8.543483 3.579487 0.082624 -0.130027 0.075290
-377.968763 92.843615 -85.786674 172.650352 -5.927260 -1.003781 3.630205 3.166164 -0.016650 1.636635 1.423317 -0.074075 1.636635 1.423317 -0.074075 1.227586 1.067298 -0.059366 1.036244 18.479600 1.681774 1.351934 -1.870410 2.749159 -5.539727 -0.677137 12.376252 2.074987 -3.936985 66.770811 19.070169 18.372338 12.342575 -4.308247 4.570869 -12.606253 -6.376228 0.602434 -6.721148 -9.850266 -13.196289 -69.906619 -14.847760 28.775007 -19.461034 5.905467 8.393371 15.602352 -10.814321 5.261553 -2.572795 -5.220025 6.259087 -1.280603 -2.619389 -3.822842 3.840605 -0.046713 0.043315 -0.013219 3.546045 8.688891 1.610384 1.809402 6.170985 -2.752371 1.508174 -8.547677 3.595755 0.073334 -0.129181 0.068562
-378.012240 92.841663 -85.800265 172.628286 -5.895965 -1.009199 3.630674 3.177770 -0.021655 1.637917 1.429480 -0.074803 1.637917 1.429480 -0.074803 1.228549 1.071919 -0.059931 1.006472 18.458805 1.694361 1.292830 -1.908557 2.782072 -5.525990 -0.705069 12.360886 2.044552 -3.905637 66.755754 18.997831 18.400264 12.286843 -4.306051 4.567854 -12.601368 -6.362433 0.582785 -6.708410 -9.865756 -13.178708 -69.898407 -14.796043 28.754062 -19.404601 5.899822 8.399438 15.619832 -10.842000 5.230525 -2.595711 -5.204545 6.250063 -1.275954 -2.608038 -3.807332 3.859303 -0.043520 0.047450 -0.009617 3.559974 8.670582 1.574890 1.802775 6.158100 -2.733982 1.518314 -8.550746 3.615449 0.067813 -0.126951 0.061382
-378.056491 92.839004 -85.816999 172.605405 -5.875766 -1.022605 3.636471 3.192423 -0.024459 1.639771 1.435555 -0.075489 1.639771 1.435555 -0.075489 1.229941 1.076473 -0.060467 0.975451 18.441428 1.706514 1.231606 -1.940316 2.814613 -5.526335 -0.713469 12.348228 1.999348 -3.884179 66.750843 18.945751 18.417652 12.239386 -4.306304 4.564936 -12.620397 -6.360029 0.575910 -6.703343 -9.848096 -13.156292 -69.881115 -14.756187 28.757585 -19.368237 5.890720 8.392257 15.632666 -10.867001 5.220790 -2.617516 -5.175502 6.228343 -1.263836 -2.605370 -3.791504 3.881459 -0.043353 0.052967 -0.010134 3.538468 8.675259 1.537247 1.823866 6.129911 -2.704818 1.533636 -8.557357 3.626470 0.067262 -0.119434 0.057768
-378.098068 92.834026 -85.835706 172.577420 -5.855533 -1.029108 3.643696 3.211984 -0.025353 1.641137 1.442625 -0.075199 1.641137 1.442625 -0.075199 1.230965 1.081776 -0.060271 0.951013 18.419774 1.715753 1.183351 -1.980109 2.839669 -5.542476 -0.733483 12.341202 1.952327 -3.841939 66.733410 18.936982 18.428482 12.219895 -4.312636 4.559201 -12.623727 -6.361439 0.561311 -6.688703 -9.817083 -13.135187 -69.875534 -14.730688 28.754012 -19.350428 5.895168 8.385248 15.632116 -10.874415 5.200008 -2.636934 -5.156673 6.230473 -1.266456 -2.603013 -3.793879 3.913922 -0.039533 0.059629 -0.012847 3.515118 8.691705 1.506288 1.831838 6.085451 -2.704746 1.560000 -8.568223 3.660187 0.064332 -0.105857 0.047497
-378.140678 92.827822 -85.855572 172.559347 -5.829408 -1.037560 3.646245 3.221834 -0.037629 1.642994 1.446979 -0.077837 1.642994 1.446979 -0.077837 1.232364 1.085034 -0.062266 0.936540 18.401000 1.729255 1.152034 -2.014669 2.869287 -5.565432 -0.742294 12.352166 1.919197 -3.816891 66.703829 18.924653 18.412578 12.221172 -4.311932 4.559510 -12.636128 -6.373875 0.551534 -6.670143 -9.800011 -13.090098 -69.880826 -14.679318 28.750721 -19.312319 5.891604 8.375481 15.620279 -10.856040 5.192404 -2.656222 -5.167761 6.204324 -1.259709 -2.603504 -3.794256 3.945237 -0.037099 0.072513 -0.016148 3.479411 8.702234 1.478149 1.825892 6.037754 -2.716312 1.601278 -8.581473 3.703206 0.056147 -0.090173 0.037179
-378.181225 92.821276 -85.878641 172.528984 -5.810013 -1.024534 3.649611 3.234038 -0.059266 1.641879 1.449072 -0.078575 1.641879 1.449072 -0.078575 1.231530 1.086603 -0.062823 0.926697 18.389144 1.733627 1.132325 -2.036504 2.880596 -5.563331 -0.737521 12.357864 1.863435 -3.804887 66.691472 18.923151 18.423101 12.213633 -4.323777 4.567408 -12.630930 -6.360196 0.552950 -6.665387 -9.805451 -13.050891 -69.880851 -14.633631 28.758109 -19.289135 5.904064 8.378990 15.616092 -10.802289 5.189846 -2.694483 -5.206887 6.180294 -1.253204 -2.605567 -3.792485 3.978235 -0.028961 0.076445 -0.018996 3.451842 8.713770 1.428501 1.818104 6.005045 -2.721537 1.648264 -8.617496 3.742650 0.037677 -0.061774 0.025615
-378.227361 92.814353 -85.909920 172.504029 -5.795560 -1.026151 3.649364 3.245225 -0.078349 1.641122 1.452844 -0.080403 1.641122 1.452844 -0.080403 1.230967 1.089427 -0.064202 0.917456 18.376527 1.741022 1.112711 -2.059738 2.897267 -5.591550 -0.727030 12.372657 1.845733 -3.796495 66.669521 18.904917 18.421377 12.217843 -4.325031 4.580939 -12.640254 -6.350368 0.560504 -6.648466 -9.817523 -13.009325 -69.893663 -14.582097 28.766746 -19.261187 5.909808 8.383605 15.612072 -10.729592 5.206518 -2.728362 -5.265909 6.148656 -1.238603 -2.604545 -3.810929 4.024379 -0.022731 0.092974 -0.028472 3.391056 8.733959 1.379751 1.815551 5.978631 -2.728617 1.719551 -8.639032 3.778838 0.016315 -0.058581 0.023367
-378.268564 92.802395 -85.948562 172.472842 -5.781629 -1.027911 3.650534 3.256868 -0.090026 1.642073 1.456555 -0.080928 1.642073 1.456555 -0.080928 1.231681 1.092208 -0.064608 0.905631 18.363619 1.742522 1.090279 -2.083506 2.903963 -5.628576 -0.728803 12.373099 1.843684 -3.774492 66.683220 18.893530 18.413262 12.188707 -4.330288 4.583846 -12.632221 -6.341807 0.562657 -6.623019 -9.825657 -12.956742 -69.931501 -14.543923 28.787299 -19.234769 5.914879 8.375400 15.602277 -10.631532 5.238554 -2.758213 -5.327067 6.105351 -1.222720 -2.619372 -3.844387 4.078042 -0.011790 0.116236 -0.040921 3.335746 8.747360 1.338913 1.791616 5.977922 -2.744987 1.802036 -8.679542 3.809727 -0.003210 -0.054181 0.024744
-378.318953 92.785444 -85.989587 172.448711 -5.764973 -1.022304 3.652931 3.276795 -0.110034 1.643575 1.465483 -0.083870 1.643575 1.465483 -0.083870 1.232815 1.098896 -0.066842 0.898925 18.347686 1.741140 1.078153 -2.112993 2.903691 -5.649697 -0.761640 12.365039 1.806980 -3.748251 66.706118 18.895495 18.409294 12.192102 -4.331010 4.581125 -12.633661 -6.341179 0.534118 -6.601590 -9.837528 -12.877572 -69.960837 -14.516852 28.798146 -19.217606 5.898938 8.375130 15.596871 -10.507495 5.267053 -2.791725 -5.428924 6.064907 -1.227690 -2.622039 -3.891539 4.161119 -0.002026 0.144262 -0.058383 3.266898 8.736862 1.289288 1.772815 6.022105 -2.776568 1.885593 -8.747110 3.850888 -0.034315 -0.048416 0.026308
-378.371839 92.764152 -86.034358 172.433646 -5.752351 -1.014976 3.655643 3.292118 -0.123079 1.647914 1.472873 -0.084347 1.647914 1.472873 -0.084347 1.236071 1.104437 -0.067230 0.892747 18.331346 1.735313 1.068454 -2.143275 2.895077 -5.667507 -0.773238 12.351800 1.747280 -3.719352 66.730567 18.925948 18.403769 12.197862 -4.327542 4.581926 -12.631847 -6.346976 0.522681 -6.593757 -9.852335 -12.807274 -69.976671 -14.519380 28.809272 -19.220957 5.892234 8.380519 15.576498 -10.388976 5.286278 -2.842757 -5.520079 6.060009 -1.212699 -2.629856 -3.966137 4.256666 0.005387 0.171867 -0.085579 3.147146 8.688350 1.235633 1.769525 6.151879 -2.816002 1.972832 -8.863075 3.901420 -0.060646 -0.039207 0.020253
-378.437644 92.741111 -86.072194 172.431612 -5.720678 -1.007368 3.651205 3.293290 -0.147218 1.654559 1.479322 -0.087034 1.654559 1.479322 -0.087034 1.241061 1.109265 -0.069278 0.885978 18.317564 1.735040 1.055881 -2.168757 2.896861 -5.705985 -0.783638 12.362481 1.696741 -3.695791 66.764754 18.954952 18.403551 12.221024 -4.341003 4.585451 -12.641200 -6.370061 0.517248 -6.577828 -9.855556 -12.753184 -69.992294 -14.523157 28.816050 -19.244701 5.881834 8.389765 15.564189 -10.265468 5.269345 -2.899977 -5.619174 6.080106 -1.189445 -2.650958 -4.062255 4.361623 0.013176 0.211253 -0.113212 2.936784 8.566197 1.165559 1.820568 6.383505 -2.872858 2.095522 -9.007625 3.969862 -0.108155 -0.048852 0.008441
-378.518820 92.718594 -86.110143 172.413796 -5.690020 -0.990374 3.653673 3.292231 -0.172752 1.661775 1.482220 -0.092136 1.661775 1.482220 -0.092136 1.246485 1.111424 -0.073130 0.882000 18.304767 1.734161 1.048649 -2.192463 2.896609 -5.707766 -0.779598 12.391433 1.653734 -3.668977 66.782566 18.974889 18.410627 12.226140 -4.337361 4.569333 -12.640960 -6.385563 0.526285 -6.560144 -9.857081 -12.700069 -70.012280 -14.527165 28.812885 -19.255155 5.860998 8.389008 15.546664 -10.095143 5.220786 -2.966426 -5.701855 6.156221 -1.179254 -2.708780 -4.161805 4.486323 0.020145 0.230629 -0.135163 2.750177 8.394325 1.070235 1.860542 6.707036 -2.918410 2.207173 -9.187295 4.054472 -0.145798 -0.063290 -0.010227
-378.613687 92.699570 -86.149810 172.399152 -5.664650 -0.974047 3.658387 3.297374 -0.199521 1.670217 1.490124 -0.095525 1.670217 1.490124 -0.095525 1.252825 1.117342 -0.075714 0.879478 18.283239 1.734641 1.043505 -2.232393 2.898407 -5.720727 -0.788404 12.419401 1.657219 -3.628125 66.787525 18.974313 18.413275 12.229985 -4.344186 4.570181 -12.637272 -6.406526 0.531190 -6.565104 -9.854729 -12.669810 -70.043905 -14.500709 28.814926 -19.230497 5.876238 8.390657 15.542541 -9.865285 5.171888 -3.026454 -5.821388 6.242752 -1.187686 -2.783283 -4.248631 4.628443 0.030082 0.236624 -0.151190 2.570302 8.209878 0.980973 1.911093 7.067287 -2.993211 2.310829 -9.371535 4.171634 -0.192890 -0.090290 -0.035675
-378.713970 92.679868 -86.198186 172.376160 -5.661007 -0.966034 3.672565 3.312836 -0.205002 1.679099 1.498786 -0.094515 1.679099 1.498786 -0.094515 1.259485 1.123840 -0.075002 0.870242 18.268844 1.732575 1.026973 -2.258986 2.897720 -5.741270 -0.790961 12.425340 1.661157 -3.588844 66.814329 18.949337 18.458868 12.212902 -4.355997 4.567429 -12.633476 -6.427721 0.554312 -6.578783 -9.846486 -12.653307 -70.091832 -14.464796 28.799540 -19.188395 5.899313 8.387233 15.552203 -9.650340 5.138675 -3.089765 -5.946233 6.347419 -1.196920 -2.828098 -4.337774 4.765823 0.037607 0.233555 -0.156532 2.411158 8.045447 0.910219 1.936742 7.443161 -3.081950 2.403729 -9.565480 4.294312 -0.219922 -0.118616 -0.056341
